# xmcd
#
# Track frame offsets: 
#        150
#        27638
#        51336
#        75830
#        98682
#        125238
#        149738
#        185119
#        206352
#        232607
#        255898
#
# Disc length: 3782 seconds
#
# Revision: 0
# Processed by: cddbd v1.5.2PL0 Copyright (c) Steve Scherf et al.
# Submitted via: ExactAudioCopyFreeDBPlugin 1.0
#
DISCID=920ec40b
DTITLE=天才バンド - アインとシュタイン
DYEAR=2014
DGENRE=Blues
TTITLE0=天王寺ガール
TTITLE1=DANCE MUSIC FOR ME!!
TTITLE2=君が誰かの彼女になりくさっても
TTITLE3=サンセット通り
TTITLE4=平和 to the people!!!
TTITLE5=LOVESTORY
TTITLE6=ロッケンロールベイベー
TTITLE7=君は僕の最高の彼女さ
TTITLE8=Star Light Future
TTITLE9=恋のマジック
TTITLE10=ロック NEW DAYS
EXTD=
EXTT0=
EXTT1=
EXTT2=
EXTT3=
EXTT4=
EXTT5=
EXTT6=
EXTT7=
EXTT8=
EXTT9=
EXTT10=
PLAYORDER=
